<?xml version="1.0" standalone="no"?><!DOCTYPE svg PUBLIC "-//W3C//DTD SVG 1.1//EN" "http://www.w3.org/Graphics/SVG/1.1/DTD/svg11.dtd"><svg t="1599744426269" class="icon" viewBox="0 0 1024 1024" version="1.1" xmlns="http://www.w3.org/2000/svg" p-id="1205" width="128" height="128" xmlns:xlink="http://www.w3.org/1999/xlink"><path fill="#deb" d="M392.1738521 503.74761612H69.20460615c-20.14474393 0-36.5872106-16.44246667-36.5872106-36.5872106V144.19115956c0-20.14474393 16.44246667-36.5872106 36.5872106-36.5872106h322.96924595c20.14474393 0 36.5872106 16.44246667 36.5872106 36.5872106v322.96924596c-0.10889052 20.14474393-16.44246667 36.5872106-36.5872106 36.5872106z m-294.22215191-65.33430464h265.36616736V172.93825361H97.95170019v265.47505787zM393.26275717 990.48818567H70.29351125c-20.14474393 0-36.5872106-16.44246667-36.5872106-36.58721058V630.93172914c0-20.14474393 16.44246667-36.5872106 36.5872106-36.5872106h322.96924592c20.14474393 0 36.5872106 16.44246667 36.5872106 36.5872106v322.96924594c-0.10889052 20.14474393-16.44246667 36.5872106-36.5872106 36.58721059z m-294.22215189-65.33430463h265.36616735V659.7877137H99.04060528v265.36616734zM888.38789584 990.8148572H565.41864992c-20.14474393 0-36.5872106-16.44246667-36.58721062-36.5872106V631.36729117c0-20.14474393 16.44246667-36.5872106 36.58721062-36.5872106h322.96924592c20.14474393 0 36.5872106 16.44246667 36.58721062 36.5872106v322.96924593c0 20.03585342-16.44246667 36.4783201-36.58721062 36.4783201z m-294.22215192-65.33430464h265.36616737V660.11438522H594.16574392v265.36616734zM729.73442606 557.53952692c-9.8001457 0-18.94694835-3.81116777-25.91594082-10.67126974L477.65290066 320.5937821c-6.86010199-6.86010199-10.67126976-16.11579514-10.67126972-25.80705033s3.81116777-18.94694835 10.67126972-25.80705036l23.08478765 23.08478767-23.08478765-23.08478767L702.29401813 44.22967349c6.86010199-6.86010199 16.11579514-10.67126976 25.80705033-10.67126977 9.8001457 0 18.94694835 3.81116777 25.80705034 10.67126977l226.27447508 226.27447506c6.86010199 6.86010199 10.67126976 16.11579514 10.67126973 25.80705033s-3.81116777 18.94694835-10.67126973 25.80705033L755.5414764 546.86825718c-6.86010199 6.86010199-16.00690464 10.67126976-25.80705034 10.67126974zM544.1850009 294.78673177l185.54942516 185.54942517 184.02495809-184.02495806-185.65831569-185.54942518-183.91606756 184.02495807z" p-id="1206"></path></svg>