<?xml version="1.0" standalone="no"?><!DOCTYPE svg PUBLIC "-//W3C//DTD SVG 1.1//EN" "http://www.w3.org/Graphics/SVG/1.1/DTD/svg11.dtd"><svg t="1599744435718" class="icon" viewBox="0 0 1024 1024" version="1.1" xmlns="http://www.w3.org/2000/svg" p-id="1364" width="128" height="128" xmlns:xlink="http://www.w3.org/1999/xlink"><path fill="#deb" d="M693.85556634 880.29885624c-23.32658389 77.8682039-94.32264017 133.08735804-176.69161655 133.08735802-82.29638327 0-153.3408342-55.17075949-176.69161655-133.08735802H81.77470583a36.29655229 36.29655229 0 0 1 0-72.59310458h24.19770117V493.90995787C105.972407 272.74296668 270.85554594 101.13286744 481.03678104 83.29916104V45.47815355a36.29655229 36.29655229 0 0 1 72.59310458 0v37.82100749c210.18123509 17.8337064 375.06437404 189.46800296 375.06437404 410.6349953V807.70575166h24.19770117a36.29655229 36.29655229 0 0 1 0 72.59310458H693.85556634z m-78.06178588 0h-197.25966246c19.14038229 36.41754117 56.59842424 60.49425344 98.62983179 60.49425345 42.05560488 0 79.4894495-24.10091072 98.62983067-60.49425345zM856.1011551 807.70575166V493.90995787C856.1011551 302.50613956 706.70454587 154.36781042 517.33333333 154.36781042s-338.76782177 148.16252645-338.76782177 339.54214745V807.70575166h677.53564354zM345.23927968 422.18797055a36.29655229 36.29655229 0 1 1-67.17281906-27.48858817c25.4075866-62.11550019 72.98026743-108.62348178 138.77381865-140.44346006a36.29655229 36.29655229 0 1 1 31.60219781 65.33379413c-50.50060347 24.43967893-85.00652546 58.19547256-103.2031974 102.5982541z" p-id="1365"></path></svg>