<?xml version="1.0" standalone="no"?><!DOCTYPE svg PUBLIC "-//W3C//DTD SVG 1.1//EN" "http://www.w3.org/Graphics/SVG/1.1/DTD/svg11.dtd"><svg t="1599744383918" class="icon" viewBox="0 0 1024 1024" version="1.1" xmlns="http://www.w3.org/2000/svg" p-id="766" width="128" height="128" xmlns:xlink="http://www.w3.org/1999/xlink"><path fill="#deb" d="M983.4 890h-942c-22.5 0-41 14.5-41 32.3v1.5c0 17.8 18.5 32.2 41 32.2h942c22.6 0 41-14.5 41-32.2v-1.5c-0.1-17.8-18.4-32.3-41-32.3z" p-id="767"></path><path fill="#deb" d="M545.1 363.6h-65.4c-21.2 0-38.4 17.2-38.4 38.4v282.8c0 21.2 17.2 38.4 38.4 38.4h65.4c21.2 0 38.4-17.2 38.4-38.4V402.1c0-21.3-17.1-38.5-38.4-38.5z m-287.9 0h-65.5c-21 0-38.4 17.3-38.4 38.4v282.8c0 21.2 17.4 38.4 38.4 38.4h65.5c21.2 0 38.4-17.3 38.4-38.4V402.1c0-21.2-17.2-38.5-38.4-38.5z m575.8 0h-65.4c-21.1 0-38.3 17.2-38.3 38.4v282.8c0 21.2 17.2 38.4 38.3 38.4H833c21.2 0 38.4-17.2 38.4-38.4V402.1c0-21.3-17.2-38.5-38.4-38.5zM1002.3 253.3L521.2 65.5c-5.7-1.7-11.7-1.7-17.3 0L22.4 253.3C8.9 257.1 0.5 269.5 2.6 282.2 4.8 295 17 304.4 31 304.4h962.6c14.3 0 26.5-9.4 28.5-22.3 2.2-12.6-6.2-25-19.8-28.8z"  p-id="768"></path><path fill="#deb" d="M974.2 808.7v1.5c0 17.8-18.4 32.3-41 32.3H91.5c-22.6 0-41.1-14.5-41.1-32.3v-1.5c0-17.8 18.5-32.3 41.1-32.3h841.7c22.6 0 41 14.5 41 32.3z"  p-id="769"></path></svg>